<svg width="266" height="71" viewBox="0 0 266 71" fill="none" xmlns="http://www.w3.org/2000/svg">
<g clip-path="url(#clip0_501_1905)">
<path d="M38.158 6.70121L33.1299 8.79614L33.9361 10.7311L38.9642 8.63615L38.158 6.70121Z" fill="black"/>
<path d="M34.567 14.8737L34.4863 16.9683L39.9296 17.178L40.0103 15.0834L34.567 14.8737Z" fill="black"/>
<path d="M32.7697 0.000495292L29.0859 4.0127L30.6299 5.43022L34.3136 1.41802L32.7697 0.000495292Z" fill="black"/>
<path d="M31.3486 42.1026V37.2104H29.7919V13.8019L20.2444 5.33521H16.9882V37.2104H15.4316V42.1026H13.4482V70.0001H33.3317V42.1026H31.3486ZM19.4487 7.43134L27.6959 14.7447V37.2106H19.0844V7.43134H19.4487ZM29.2525 39.3065V42.1026H17.5276V39.3065H29.2525ZM31.2357 67.904H15.5444V65.6247H31.2357V67.904ZM31.2357 63.5287H15.5444V44.1986H31.2357V63.5287Z" fill="black"/>
<path d="M22.1157 27.2739H20.0195V30.1355H22.1157V27.2739Z" fill="black"/>
<path d="M22.1157 13.8899H20.0195V25.9829H22.1157V13.8899Z" fill="black"/>
<path d="M36.668 40.3073V70H56.5514V40.3073H36.668ZM54.4555 67.904H38.7641V46.7786H54.4555V67.904ZM54.4555 44.6826H38.7641V42.4032H54.4555V44.6826Z" fill="black"/>
<path d="M49.7792 23.225C48.417 23.225 47.4196 23.7866 46.6035 24.4561C45.7395 23.7419 44.8021 23.225 43.4335 23.225C40.9102 23.225 38.8574 25.3021 38.8574 27.8553C38.8576 29.0159 39.2099 29.7284 39.443 30.2002L39.4575 30.2296C40.4358 32.2118 45.3774 36.3404 45.9378 36.8049L46.6047 37.3575L47.2731 36.8065C48.1958 36.0461 52.8441 32.1538 53.7629 30.2146L53.7873 30.1636C54.0165 29.6813 54.363 28.9523 54.363 27.8553C54.3627 25.3021 52.3065 23.225 49.7792 23.225ZM51.8939 29.2637L51.8684 29.3172C51.3698 30.3694 48.6125 32.9243 46.6079 34.6292C44.6141 32.926 41.8641 30.37 41.3368 29.302L41.322 29.2718C41.1243 28.8718 40.9536 28.5262 40.9536 27.8553C40.9536 26.434 42.0429 25.3208 43.4335 25.3208C44.3946 25.3208 44.9444 25.7388 45.8883 26.6262L46.6143 27.3087L47.3327 26.618C48.2271 25.7578 48.8511 25.321 49.7792 25.321C51.1739 25.321 52.2666 26.4341 52.2666 27.8553C52.2666 28.4797 52.0856 28.8604 51.8939 29.2637Z" fill="black"/>
</g>
<path d="M95.776 27.2V44H94.024V36.248H83.512V44H81.736V27.2H83.512V34.688H94.024V27.2H95.776ZM106.059 44.12C104.843 44.12 103.747 43.848 102.771 43.304C101.795 42.744 101.027 41.976 100.467 41C99.9074 40.024 99.6274 38.92 99.6274 37.688C99.6274 36.456 99.9074 35.352 100.467 34.376C101.027 33.4 101.795 32.64 102.771 32.096C103.747 31.552 104.843 31.28 106.059 31.28C107.275 31.28 108.371 31.552 109.347 32.096C110.323 32.64 111.083 33.4 111.627 34.376C112.187 35.352 112.467 36.456 112.467 37.688C112.467 38.92 112.187 40.024 111.627 41C111.083 41.976 110.323 42.744 109.347 43.304C108.371 43.848 107.275 44.12 106.059 44.12ZM106.059 42.608C106.955 42.608 107.755 42.408 108.459 42.008C109.179 41.592 109.739 41.008 110.139 40.256C110.539 39.504 110.739 38.648 110.739 37.688C110.739 36.728 110.539 35.872 110.139 35.12C109.739 34.368 109.179 33.792 108.459 33.392C107.755 32.976 106.955 32.768 106.059 32.768C105.163 32.768 104.355 32.976 103.635 33.392C102.931 33.792 102.371 34.368 101.955 35.12C101.555 35.872 101.355 36.728 101.355 37.688C101.355 38.648 101.555 39.504 101.955 40.256C102.371 41.008 102.931 41.592 103.635 42.008C104.355 42.408 105.163 42.608 106.059 42.608ZM131.69 31.28C133.274 31.28 134.514 31.736 135.41 32.648C136.322 33.56 136.778 34.904 136.778 36.68V44H135.074V36.848C135.074 35.536 134.754 34.536 134.114 33.848C133.49 33.16 132.602 32.816 131.45 32.816C130.138 32.816 129.106 33.224 128.354 34.04C127.602 34.84 127.226 35.952 127.226 37.376V44H125.522V36.848C125.522 35.536 125.202 34.536 124.562 33.848C123.938 33.16 123.042 32.816 121.874 32.816C120.578 32.816 119.546 33.224 118.778 34.04C118.026 34.84 117.65 35.952 117.65 37.376V44H115.946V31.376H117.578V33.68C118.026 32.912 118.65 32.32 119.45 31.904C120.25 31.488 121.17 31.28 122.21 31.28C123.266 31.28 124.178 31.504 124.946 31.952C125.73 32.4 126.314 33.064 126.698 33.944C127.162 33.112 127.826 32.464 128.69 32C129.57 31.52 130.57 31.28 131.69 31.28ZM152.438 38.216H141.878C141.974 39.528 142.478 40.592 143.39 41.408C144.302 42.208 145.454 42.608 146.846 42.608C147.63 42.608 148.35 42.472 149.006 42.2C149.662 41.912 150.23 41.496 150.71 40.952L151.67 42.056C151.11 42.728 150.406 43.24 149.558 43.592C148.726 43.944 147.806 44.12 146.798 44.12C145.502 44.12 144.35 43.848 143.342 43.304C142.35 42.744 141.574 41.976 141.014 41C140.454 40.024 140.174 38.92 140.174 37.688C140.174 36.456 140.438 35.352 140.966 34.376C141.51 33.4 142.246 32.64 143.174 32.096C144.118 31.552 145.174 31.28 146.342 31.28C147.51 31.28 148.558 31.552 149.486 32.096C150.414 32.64 151.142 33.4 151.67 34.376C152.198 35.336 152.462 36.44 152.462 37.688L152.438 38.216ZM146.342 32.744C145.126 32.744 144.102 33.136 143.27 33.92C142.454 34.688 141.99 35.696 141.878 36.944H150.83C150.718 35.696 150.246 34.688 149.414 33.92C148.598 33.136 147.574 32.744 146.342 32.744ZM166.875 35.336C167.979 35.576 168.827 36.056 169.419 36.776C170.027 37.48 170.331 38.392 170.331 39.512C170.331 40.952 169.795 42.064 168.723 42.848C167.667 43.616 166.099 44 164.019 44H156.291V27.2H163.539C165.411 27.2 166.859 27.576 167.883 28.328C168.923 29.08 169.443 30.144 169.443 31.52C169.443 32.448 169.211 33.24 168.747 33.896C168.299 34.536 167.675 35.016 166.875 35.336ZM158.067 28.664V34.76H163.419C164.779 34.76 165.827 34.504 166.563 33.992C167.299 33.464 167.667 32.704 167.667 31.712C167.667 30.72 167.299 29.968 166.563 29.456C165.827 28.928 164.779 28.664 163.419 28.664H158.067ZM163.995 42.536C165.499 42.536 166.635 42.28 167.403 41.768C168.171 41.256 168.555 40.456 168.555 39.368C168.555 37.272 167.035 36.224 163.995 36.224H158.067V42.536H163.995ZM185.016 38.216H174.456C174.552 39.528 175.056 40.592 175.968 41.408C176.88 42.208 178.032 42.608 179.424 42.608C180.208 42.608 180.928 42.472 181.584 42.2C182.24 41.912 182.808 41.496 183.288 40.952L184.248 42.056C183.688 42.728 182.984 43.24 182.136 43.592C181.304 43.944 180.384 44.12 179.376 44.12C178.08 44.12 176.928 43.848 175.92 43.304C174.928 42.744 174.152 41.976 173.592 41C173.032 40.024 172.752 38.92 172.752 37.688C172.752 36.456 173.016 35.352 173.544 34.376C174.088 33.4 174.824 32.64 175.752 32.096C176.696 31.552 177.752 31.28 178.92 31.28C180.088 31.28 181.136 31.552 182.064 32.096C182.992 32.64 183.72 33.4 184.248 34.376C184.776 35.336 185.04 36.44 185.04 37.688L185.016 38.216ZM178.92 32.744C177.704 32.744 176.68 33.136 175.848 33.92C175.032 34.688 174.568 35.696 174.456 36.944H183.408C183.296 35.696 182.824 34.688 181.992 33.92C181.176 33.136 180.152 32.744 178.92 32.744ZM192.573 31.28C194.221 31.28 195.485 31.696 196.365 32.528C197.245 33.344 197.685 34.56 197.685 36.176V44H196.053V42.032C195.669 42.688 195.101 43.2 194.349 43.568C193.613 43.936 192.733 44.12 191.709 44.12C190.301 44.12 189.181 43.784 188.349 43.112C187.517 42.44 187.101 41.552 187.101 40.448C187.101 39.376 187.485 38.512 188.253 37.856C189.037 37.2 190.277 36.872 191.973 36.872H195.981V36.104C195.981 35.016 195.677 34.192 195.069 33.632C194.461 33.056 193.573 32.768 192.405 32.768C191.605 32.768 190.837 32.904 190.101 33.176C189.365 33.432 188.733 33.792 188.205 34.256L187.437 32.984C188.077 32.44 188.845 32.024 189.741 31.736C190.637 31.432 191.581 31.28 192.573 31.28ZM191.973 42.776C192.933 42.776 193.757 42.56 194.445 42.128C195.133 41.68 195.645 41.04 195.981 40.208V38.144H192.021C189.861 38.144 188.781 38.896 188.781 40.4C188.781 41.136 189.061 41.72 189.621 42.152C190.181 42.568 190.965 42.776 191.973 42.776ZM213.69 31.376V44H212.057V41.696C211.61 42.464 210.994 43.064 210.21 43.496C209.426 43.912 208.53 44.12 207.522 44.12C205.874 44.12 204.57 43.664 203.61 42.752C202.666 41.824 202.194 40.472 202.194 38.696V31.376H203.898V38.528C203.898 39.856 204.226 40.864 204.882 41.552C205.538 42.24 206.474 42.584 207.69 42.584C209.018 42.584 210.066 42.184 210.834 41.384C211.602 40.568 211.986 39.44 211.986 38V31.376H213.69ZM225.11 43.232C224.79 43.52 224.39 43.744 223.91 43.904C223.446 44.048 222.958 44.12 222.446 44.12C221.262 44.12 220.35 43.8 219.71 43.16C219.07 42.52 218.75 41.616 218.75 40.448V32.816H216.494V31.376H218.75V28.616H220.454V31.376H224.294V32.816H220.454V40.352C220.454 41.104 220.638 41.68 221.006 42.08C221.39 42.464 221.934 42.656 222.638 42.656C222.99 42.656 223.326 42.6 223.646 42.488C223.982 42.376 224.27 42.216 224.51 42.008L225.11 43.232ZM238.586 31.376L232.274 45.512C231.762 46.696 231.17 47.536 230.498 48.032C229.826 48.528 229.018 48.776 228.074 48.776C227.466 48.776 226.898 48.68 226.37 48.488C225.842 48.296 225.386 48.008 225.002 47.624L225.794 46.352C226.434 46.992 227.202 47.312 228.098 47.312C228.674 47.312 229.162 47.152 229.562 46.832C229.978 46.512 230.362 45.968 230.714 45.2L231.266 43.976L225.626 31.376H227.402L232.154 42.104L236.906 31.376H238.586Z" fill="black"/>
<path d="M70 70.0072L70 5.91278e-05" stroke="black" stroke-width="1.5"/>
<defs>
<clipPath id="clip0_501_1905">
<rect width="70" height="70" fill="white"/>
</clipPath>
</defs>
</svg>
